<?xml version="1.0" encoding="utf-8"?>
<!-- Generator: Adobe Illustrator 24.2.1, SVG Export Plug-In . SVG Version: 6.00 Build 0)  -->
<svg version="1.1" id="Layer_1" xmlns="http://www.w3.org/2000/svg" xmlns:xlink="http://www.w3.org/1999/xlink" x="0px" y="0px"
	 viewBox="0 0 2430 1920" style="enable-background:new 0 0 2430 1920;" xml:space="preserve">
<style type="text/css">
	.st0{fill:#5ECBD8;}
	.st1{fill:#00031C;}
	.st2{fill:#F5AB43;}
</style>
<path class="st0" d="M1319.3,232.7c99.8-30.1,154.5-2.8,233.2-2.8c129.2-5.6,213.5-118,301.2-188.8c55-41.5,104.6-93.8,117.4-173.6
	c28.8-254.2-344.1-417.5-522.6-314.7c-25.8,10.1-65.2,28.5-224.8,185.4C1044.4-85.4,1030.4-46,1027.1-9
	C1014.1,158.2,1174.7,265.9,1319.3,232.7z"/>
<path class="st1" d="M1967,1159.3c-40.8,71.4-118.3,117.8-209.9,123.2c-192.8,11.4-257.5-85.6-255.2-244.4
	c1.4-99.7,45.1-207.9,135.2-245.2c44.6-20.3,94.7-28,136.9-7c80.4,41.4,64.2,162.4,165.5,188
	C2019.8,994.2,1995.6,1110.6,1967,1159.3z"/>
<path class="st2" d="M500.3,584.3c33.6,83.8,88.8,163.1,151.6,229.4c195.6,206.5,710.6,150.5,760.7-163.2
	c4.4-52.8-28-102.1-76.1-122.6c-66.5-32.8-143.4-32.4-214.6-50c-53-13.1-106.9-46.3-148.2-77.9c-58.9-45.1-96.5-108-141.3-165.9
	C650.6,41.8,419.5,412.7,500.3,584.3z"/>
<path class="st1" d="M717.1-29.5c-95,74.9-311.3,165.8-406.7,95.1C190-23.5,71.9-172.4,67-329.1c44.6-260.6,346.3-419.5,595-430.5
	C1182.9-810.6,974.8-240.2,717.1-29.5z"/>
<path class="st0" d="M-494.9,652.3c32.2,120.5,105.7,199.2,243.4,239.3c306.2,89.3,442.9-158.2,440.8-430
	c14.1-149.7-39.8-273-150.1-334.1C-11,97.7-56.9,93.9-107.3,110.1C-229.4,155.5-248,347.7-395.1,367.8
	C-512.4,383.8-517.5,566.3-494.9,652.3z"/>
<path class="st0" d="M1935.1,652.3c32.2,120.5,105.7,199.2,243.4,239.3c306.2,89.3,442.9-158.2,440.8-430
	c14.1-149.7-39.8-273-150.1-334.1c-50.2-29.8-96.1-33.6-146.5-17.4c-122.1,45.4-140.7,237.6-287.8,257.7
	C1917.6,383.8,1912.5,566.3,1935.1,652.3z"/>
<path class="st0" d="M1319.3,2152.7c99.8-30.1,154.5-2.8,233.2-2.8c129.2-5.6,213.5-118,301.2-188.8c55-41.5,104.6-93.8,117.4-173.6
	c28.8-254.2-344.1-417.5-522.6-314.7c-25.8,10.1-65.2,28.5-224.8,185.4c-179.3,176.4-193.3,215.8-196.6,252.8
	C1014.1,2078.2,1174.7,2185.9,1319.3,2152.7z"/>
<path class="st1" d="M717.1,1890.5c-95,74.9-311.3,165.8-406.7,95.1C190,1896.5,71.9,1747.6,67,1590.9
	c44.6-260.6,346.3-419.5,595-430.5C1182.9,1109.4,974.8,1679.8,717.1,1890.5z"/>
</svg>
