<?xml version="1.0" encoding="utf-8"?>
<!-- Generator: Adobe Illustrator 24.2.1, SVG Export Plug-In . SVG Version: 6.00 Build 0)  -->
<svg version="1.1" id="Layer_1" xmlns="http://www.w3.org/2000/svg" xmlns:xlink="http://www.w3.org/1999/xlink" x="0px" y="0px"
	 viewBox="0 0 1080 110" style="enable-background:new 0 0 1080 110;" xml:space="preserve">
<style type="text/css">
	.st0{fill:#F5AB43;}
	.st1{fill:#5ECBD8;}
	.st2{fill:#FFFFFF;}
</style>
<path class="st0" d="M1080,0v68.8C923.8,90,796.9,88.6,709.1,83.3C523.5,72,413.5,37,178.4,33.1C102.8,31.9,40.7,34.3,0,36.5V0H1080
	z"/>
<path class="st1" d="M1080,60.5v11.7c-149.1,29.2-270.5,31.1-355.5,27c-209.3-10-338-62.9-603.5-55.4C69.9,45.1,27.9,48.4,0,51V32.7
	c40.7-1.9,102.8-4,178.4-2.9c235.1,3.3,345.1,33.4,530.7,43C796.9,77.4,923.8,78.6,1080,60.5z"/>
<g>
	<path class="st2" d="M638.4,55.1V29.9l-7.5,0.3v-12H659v12l-7.5-0.3v25.2H638.4z"/>
	<path class="st2" d="M663.1,55.1V18.3H676v12.5h8.2V18.3H697v36.8h-12.9V42.3H676v12.8H663.1z"/>
	<path class="st2" d="M715.8,50.5l-1,4.6h-14.1l12.7-36.8h14.8l13.1,36.8h-14.2l-1.2-4.6H715.8z M721.2,30.6h-0.5
		c-0.1,1.5-0.3,2.8-0.6,4.1l-1.8,7.1h5.4l-1.7-7.1C721.6,33.3,721.4,31.9,721.2,30.6z"/>
	<path class="st2" d="M745,55.1V18.3h12.7l8.6,13.9c1.4,2.2,2.3,3.6,3.5,6.5h0.4c-0.6-2.3-1.2-6-1.2-8.7V18.3h12.8v36.8H769
		l-9.2-14.5c-0.8-1.3-1.8-3.3-2.5-4.8h-0.4c0.4,2,0.8,5.1,0.8,6.8v12.5H745z"/>
	<path class="st2" d="M789.2,55.1V18.3H802v11.4c0,1.7-0.1,3-0.3,4.6h0.3c0.8-2.1,1.3-2.9,1.9-4.1l6.3-11.9h14.5l-11.5,18L826,55.1
		h-15.4l-6.7-11.8c-0.7-1.1-1.3-2.4-1.8-3.5h-0.3C802,41,802,42,802,43.2v11.9H789.2z"/>
	<path class="st2" d="M838.8,18.3h15.1l3.1,6.7c0.2,0.5,0.7,1.5,1,2.9h0.4c0.3-1.5,0.7-2.1,1-2.9l2.9-6.7h15.1l-12.6,21v15.8h-13.2
		V39.2L838.8,18.3z"/>
	<path class="st2" d="M912.6,50c-3.1,3.2-8.3,5.9-15.3,5.9c-7,0-12.1-2.7-15.3-5.9c-2.9-2.9-5.1-7.4-5.1-13.4
		c0-5.8,2.3-10.4,5.1-13.3c3.1-3.2,8.3-5.9,15.3-5.9c7,0,12.1,2.7,15.3,5.9c2.9,2.9,5.1,7.4,5.1,13.3
		C917.8,42.5,915.5,47.1,912.6,50z M892.6,31.2c-1.3,1.4-2.1,3.5-2.1,5.5c0,2.1,0.8,4.1,2.1,5.5c1.1,1.1,2.8,1.9,4.8,1.9
		c2,0,3.7-0.8,4.8-1.9c1.2-1.2,2.1-3.1,2.1-5.5s-0.8-4.2-2.1-5.5c-1-1-2.6-1.9-4.8-1.9C895,29.3,893.4,30.2,892.6,31.2z"/>
	<path class="st2" d="M923.5,18.3h13.2v21.4c0,1.1,0.1,2.6,1.2,3.8c0.7,0.8,1.6,1,2.6,1c1.4,0,2.2-0.4,2.7-0.9c1-1,1-2.9,1-3.9V18.3
		h13.3v22.6c0,2.9-0.6,7.1-3.9,10.5c-3.8,3.9-9,4.6-13.1,4.6c-3.4,0-9.5-0.3-13.7-4.9c-2.9-3.1-3.4-6.6-3.4-9.3V18.3z"/>
	<path class="st2" d="M978.1,53.6c-1.4,1.4-3.6,2.1-5.6,2.1c-1.9,0-4.1-0.7-5.5-2.1c-1.1-1.1-1.7-2.7-1.7-4.1c0-1.3,0.6-2.9,1.7-4
		c1.4-1.4,3.6-2.1,5.5-2.1c1.9,0,4.1,0.7,5.6,2.1c1.1,1.1,1.7,2.7,1.7,4C979.8,50.9,979.2,52.5,978.1,53.6z M978.8,41H966V18.3h12.9
		V41z"/>
</g>
</svg>
