<svg id="Component_3_1" data-name="Component 3 – 1" xmlns="http://www.w3.org/2000/svg" width="1052.486" height="1000.78" viewBox="0 0 1052.486 1000.78">
  <path id="Path_16" data-name="Path 16" d="M205.736-13.8l9.882,37.284H331.064L224.153-276.138H103.766L0,23.481H115L123.082-13.8ZM172.944-142.275l13.925,57.5H143.3l14.824-57.5a155.959,155.959,0,0,0,4.941-33.69H167.1A331.862,331.862,0,0,0,172.944-142.275ZM477.055,23.481l14.824-140.6c.449-5.84.449-17.519.449-23.359h3.144c.449,12.578,2.7,22.011,5.84,32.792L541.292,23.481h63.787l44.471-138.8c1.8-5.84,4.492-17.519,5.84-25.155h1.8c0,12.578.9,19.316,1.8,29.647L672.459,23.481H777.124L728.161-276.138H617.207L582.169-153.505c-3.594,12.578-5.39,21.562-5.84,34.589h-2.7a222.762,222.762,0,0,0-6.738-34.589L531.858-276.138H420.006L371.492,23.481Zm575.431,0v-82.2h-96.13V-87.472h84.9v-78.611h-84.9v-27.851h93.435v-82.2H847.649V23.481ZM133.863,370.693V268.723c0-13.476-3.594-39.081-6.738-55.252h3.144c5.84,12.578,13.925,28.3,20.663,39.081L225.5,370.693H329.716V71.073H225.5V166.3c0,22.011,4.941,52.108,9.433,70.974H231.79c-9.883-23.359-17.07-35.038-28.3-53.006l-69.627-113.2H30.1V370.693Zm387.214,0V71.073H412.37V370.693Zm223.7,0V165.855l61.092,2.7V71.073H576.779v97.477l61.092-2.7V370.693ZM138.8,717.9V418.284H30.1V717.9Zm287.491,0V635.7h-96.13V606.95h84.9V528.34h-84.9V500.489H423.6v-82.2H221.458V717.9ZM716.481,437.6c-36.386-22.011-67.381-26.054-91.189-26.054-47.616,0-81.306,15.273-104.215,38.632-19.765,19.765-29.2,43.573-29.2,71.424,0,21.562,6.289,39.53,21.562,55.252,16.621,17.07,35.038,22.46,52.108,25.6l26.5,4.941c11.23,2.246,17.07,3.594,20.663,7.187,3.144,3.144,3.594,7.636,3.594,10.332,0,4.492-.9,9.433-5.84,13.476-2.246,1.8-8.535,5.39-23.359,5.39-26.5,0-49.413-13.476-60.643-22.011l-11.679-8.984L482,697.24l9.883,4.043c25.6,10.332,56.151,23.359,101.969,23.359,56.151,0,88.493-20.663,105.563-38.182,20.214-21.113,26.952-44.921,26.952-70.525,0-17.968-4.043-40.878-22.909-59.295-8.984-8.984-24.706-19.765-51.209-25.6L617.656,523.4c-16.621-3.594-17.519-9.433-17.519-15.722,0-4.492,1.348-7.636,5.39-10.781,5.84-4.492,14.824-5.391,20.663-5.391,24.257,0,48.065,13.476,61.092,22.46Z" transform="translate(0 276.138)" fill="#f5ab43"/>
</svg>
